<svg viewBox="0 0 13 13"  xmlns="http://www.w3.org/2000/svg">
<path d="M11.2838 1.40663L11.5934 1.71623C11.8339 1.95675 11.8339 2.34567 11.5934 2.58362L10.8488 3.33076L9.66924 2.15121L10.4138 1.40663C10.6543 1.16612 11.0433 1.16612 11.2812 1.40663H11.2838ZM5.3681 6.4549L8.80185 3.0186L9.9814 4.19815L6.5451 7.6319C6.47089 7.7061 6.37878 7.75983 6.27899 7.78797L4.78217 8.21527L5.20947 6.71845C5.23761 6.61866 5.29135 6.52655 5.36555 6.45234L5.3681 6.4549ZM9.54642 0.539241L4.49815 5.58495C4.27555 5.80756 4.11435 6.08134 4.02992 6.3807L3.29813 8.93938C3.23673 9.15431 3.29558 9.38459 3.45421 9.54323C3.61285 9.70186 3.84313 9.76071 4.05806 9.69931L6.61674 8.96752C6.91866 8.88053 7.19244 8.71933 7.41249 8.49929L12.4608 3.45357C13.1797 2.73459 13.1797 1.56783 12.4608 0.848841L12.1512 0.539241C11.4322 -0.179747 10.2654 -0.179747 9.54642 0.539241ZM2.25164 1.53713C1.00812 1.53713 0 2.54524 0 3.78876V10.7484C0 11.9919 1.00812 13 2.25164 13H9.21124C10.4548 13 11.4629 11.9919 11.4629 10.7484V7.88265C11.4629 7.54234 11.1891 7.26856 10.8488 7.26856C10.5085 7.26856 10.2347 7.54234 10.2347 7.88265V10.7484C10.2347 11.3138 9.77671 11.7718 9.21124 11.7718H2.25164C1.68617 11.7718 1.22817 11.3138 1.22817 10.7484V3.78876C1.22817 3.22329 1.68617 2.76529 2.25164 2.76529H5.11735C5.45766 2.76529 5.73144 2.49151 5.73144 2.15121C5.73144 1.8109 5.45766 1.53713 5.11735 1.53713H2.25164Z" />
</svg>
