<svg  viewBox="0 0 13 12"  xmlns="http://www.w3.org/2000/svg">
<path d="M4.78413 0.779619L5.32052 0.450043C5.80127 0.15456 6.35102 0 6.91189 0C7.73095 0 8.51884 0.33185 9.09752 0.925088L10.5197 2.3775C10.8536 2.71844 11.0406 3.18212 11.0406 3.66398V4.36632L11.479 4.81409C11.8262 4.45951 12.3893 4.45951 12.7388 4.81409C13.0882 5.16867 13.086 5.74373 12.7388 6.10058L11.3143 7.55526C10.9671 7.90984 10.404 7.90984 10.0546 7.55526C9.70514 7.20068 9.70736 6.62563 10.0546 6.26877L9.61611 5.81873H8.92837C8.45652 5.81873 8.00248 5.62781 7.66863 5.28686L6.57581 4.17085C6.24196 3.82991 6.055 3.36623 6.055 2.88436V2.5957C6.055 2.34113 5.92368 2.10247 5.71002 1.97291L4.78413 1.40468C4.55266 1.26376 4.55266 0.922815 4.78413 0.781892V0.779619ZM0.417318 9.51681L5.36058 4.46861L7.37484 6.52562L2.43157 11.5738C1.87515 12.1421 0.973741 12.1421 0.417318 11.5738C-0.139106 11.0056 -0.139106 10.085 0.417318 9.51681Z"/>
</svg>
