<svg  viewBox="0 0 13 13" xmlns="http://www.w3.org/2000/svg">
<path d="M6.96429 11.6071H1.85714C1.60179 11.6071 1.39286 11.3982 1.39286 11.1429V1.85714C1.39286 1.60179 1.60179 1.39286 1.85714 1.39286H11.1429C11.3982 1.39286 11.6071 1.60179 11.6071 1.85714V6.96429H9.05357C7.89866 6.96429 6.96429 7.89866 6.96429 9.05357V11.6071ZM11.0297 8.35714L8.35714 11.0297V9.05357C8.35714 8.66763 8.66763 8.35714 9.05357 8.35714H11.0297ZM0 11.1429C0 12.1672 0.832812 13 1.85714 13H7.58817C8.08147 13 8.55446 12.8056 8.90268 12.4574L12.4574 8.89978C12.8056 8.55156 13 8.07857 13 7.58527V1.85714C13 0.832812 12.1672 0 11.1429 0H1.85714C0.832812 0 0 0.832812 0 1.85714V11.1429Z" />
</svg>
