<svg  viewBox="0 0 11 13"  xmlns="http://www.w3.org/2000/svg">
<path d="M8.31861 0.146166C8.61079 0.351668 8.71882 0.724439 8.58623 1.04942L6.66133 5.73534H10.2141C10.5455 5.73534 10.8401 5.93606 10.9531 6.23954C11.066 6.54301 10.9703 6.88233 10.7174 7.08783L3.6463 12.8228C3.36885 13.0474 2.97356 13.0593 2.68139 12.8538C2.38921 12.6483 2.28118 12.2756 2.41377 11.9506L4.33867 7.26466H0.785944C0.454487 7.26466 0.159858 7.06394 0.0469172 6.76046C-0.0660238 6.45699 0.0297305 6.11767 0.28262 5.91217L7.3537 0.17723C7.63115 -0.0473879 8.02644 -0.0593358 8.31861 0.146166Z" />
</svg>
