<svg  viewBox="0 0 14 13"  xmlns="http://www.w3.org/2000/svg">
<path d="M4.59375 11.2667H7.75919L9.43971 9.49813L4.97463 4.79917L1.71397 8.23063L4.59632 11.264L4.59375 11.2667ZM5.76471 13H4.59375C4.15625 13 3.73676 12.8185 3.42794 12.4935L0.4375 9.34375C0.156985 9.04854 0 8.65042 0 8.23333C0 7.81625 0.156985 7.41813 0.4375 7.12292L6.76838 0.460417C7.0489 0.165208 7.42721 0 7.82353 0C8.21985 0 8.59816 0.165208 8.87868 0.460417L13.5625 5.38958C13.843 5.68479 14 6.08292 14 6.5C14 6.91708 13.843 7.31521 13.5625 7.61042L10.0882 11.2667H13.1765C13.632 11.2667 14 11.654 14 12.1333C14 12.6127 13.632 13 13.1765 13H5.76471Z" />
</svg>
