<svg width="19" height="19" viewBox="0 0 19 19" fill="none" xmlns="http://www.w3.org/2000/svg">
<mask id="mask0_5173_6359" style="mask-type:luminance" maskUnits="userSpaceOnUse" x="0" y="0" width="19" height="19">
<path d="M18.9879 0H0V19H18.9879V0Z" fill="white"/>
</mask>
<g mask="url(#mask0_5173_6359)">
<path d="M18.6087 9.71471C18.6087 9.04106 18.5483 8.39335 18.4361 7.77148H9.49451V11.4463H14.604C14.3839 12.6338 13.7151 13.6399 12.7095 14.3136V16.6972H15.7778C17.573 15.0434 18.6087 12.6078 18.6087 9.71471Z" fill="#4285F4"/>
<path d="M9.49713 19.0016C12.0605 19.0016 14.2096 18.1509 15.7803 16.7001L12.7121 14.3164C11.862 14.8864 10.7744 15.2232 9.49713 15.2232C7.02433 15.2232 4.93138 13.5521 4.18478 11.3066H1.01294V13.768C2.57517 16.8728 5.78584 19.0016 9.49713 19.0016Z" fill="#34A853"/>
<path d="M4.18162 11.3038C3.99174 10.7338 3.88389 10.1249 3.88389 9.49878C3.88389 8.87263 3.99174 8.26378 4.18162 7.69378V5.23242H1.00978C0.366847 6.51492 0 7.96586 0 9.49878C0 11.0317 0.366847 12.4826 1.00978 13.7651L4.18162 11.3038Z" fill="#FBBC04"/>
<path d="M9.49713 3.77843C10.8909 3.77843 12.1424 4.25771 13.1264 5.19906L15.8495 2.47427C14.2053 0.941355 12.0561 0 9.49713 0C5.78584 0 2.57517 2.12885 1.01294 5.23364L4.18478 7.695C4.93138 5.44958 7.02433 3.77843 9.49713 3.77843Z" fill="#E94235"/>
</g>
</svg>
