<svg width="34" height="30" viewBox="0 0 34 30" fill="none" xmlns="http://www.w3.org/2000/svg">
<path d="M23.375 4.28571H27.625C28.8004 4.28571 29.75 5.2433 29.75 6.42857V23.5714C29.75 24.7567 28.8004 25.7143 27.625 25.7143H23.375C22.1996 25.7143 21.25 26.6719 21.25 27.8571C21.25 29.0424 22.1996 30 23.375 30H27.625C31.1445 30 34 27.1205 34 23.5714V6.42857C34 2.87946 31.1445 0 27.625 0H23.375C22.1996 0 21.25 0.957589 21.25 2.14286C21.25 3.32812 22.1996 4.28571 23.375 4.28571ZM22.7508 16.5134C23.5809 15.6763 23.5809 14.317 22.7508 13.4799L14.2508 4.90848C13.4207 4.07143 12.0727 4.07143 11.2426 4.90848C10.4125 5.74554 10.4125 7.10491 11.2426 7.94196L16.1168 12.8571H2.125C0.949609 12.8571 0 13.8147 0 15C0 16.1853 0.949609 17.1429 2.125 17.1429H16.1168L11.2426 22.058C10.4125 22.8951 10.4125 24.2545 11.2426 25.0915C12.0727 25.9286 13.4207 25.9286 14.2508 25.0915L22.7508 16.5201V16.5134Z" fill="#3D67C2"/>
</svg>
