<svg  viewBox="0 0 12 12" xmlns="http://www.w3.org/2000/svg">
<path d="M1.70793 0.295978C1.31745 -0.0944946 0.683327 -0.0944946 0.292854 0.295978C-0.0976181 0.68645 -0.0976181 1.32058 0.292854 1.71105L4.58493 6L0.295978 10.2921C-0.0944946 10.6825 -0.0944946 11.3167 0.295978 11.7071C0.68645 12.0976 1.32058 12.0976 1.71105 11.7071L6 7.41507L10.2921 11.704C10.6825 12.0945 11.3167 12.0945 11.7071 11.704C12.0976 11.3135 12.0976 10.6794 11.7071 10.2889L7.41507 6L11.704 1.70793C12.0945 1.31745 12.0945 0.683327 11.704 0.292854C11.3135 -0.0976181 10.6794 -0.0976181 10.2889 0.292854L6 4.58493L1.70793 0.295978Z" />
</svg>
