<svg width="75" height="87" viewBox="0 0 75 87" fill="none" xmlns="http://www.w3.org/2000/svg">
<path d="M37.5084 0C34.5445 0 32.15 2.42988 32.15 5.4375V5.98125C19.9263 8.49609 10.7167 19.473 10.7167 32.625V36.3123C10.7167 44.4855 7.97053 52.4209 2.94709 58.81L1.3061 60.883C0.45211 61.9535 0 63.2789 0 64.6553C0 67.9857 2.66242 70.6875 5.94441 70.6875H69.0556C72.3376 70.6875 75 67.9857 75 64.6553C75 63.2789 74.5479 61.9535 73.6939 60.883L72.0529 58.81C67.0462 52.4209 64.3001 44.4855 64.3001 36.3123V32.625C64.3001 19.473 55.0904 8.49609 42.8667 5.98125V5.4375C42.8667 2.42988 40.4722 0 37.5084 0ZM27.1266 78.8438C28.3155 83.5336 32.5184 87 37.5084 87C42.4983 87 46.7013 83.5336 47.8902 78.8438H27.1266Z" fill="#B0B0B0"/>
</svg>
