<svg width="75" height="75" viewBox="0 0 75 75" fill="none" xmlns="http://www.w3.org/2000/svg">
<path d="M49.3404 31.8554C50.8533 31.4461 52.4406 32.1654 53.1226 33.5667L55.4291 38.2293C56.7064 38.403 57.9589 38.7502 59.137 39.2338L63.4772 36.3444C64.7793 35.4764 66.503 35.65 67.6067 36.7537L69.9876 39.1346C71.0913 40.2383 71.2649 41.9744 70.3968 43.264L67.5074 47.5919C67.7431 48.1747 67.9539 48.7824 68.1275 49.4148C68.3011 50.0472 68.4127 50.6673 68.4995 51.2997L73.1746 53.6062C74.5759 54.3007 75.2951 55.888 74.8859 57.3885L74.0178 60.6375C73.6086 62.1379 72.2073 63.1548 70.6448 63.0556L65.4365 62.7208C64.6553 63.7252 63.75 64.6553 62.7208 65.4489L63.0556 70.6448C63.1548 72.2073 62.1379 73.621 60.6374 74.0178L57.3885 74.8859C55.8756 75.2951 54.3007 74.5759 53.6062 73.1746L51.2997 68.5119C50.0224 68.3383 48.77 67.9911 47.5919 67.5075L43.2516 70.3968C41.9496 71.2649 40.2259 71.0913 39.1222 69.9876L36.7413 67.6067C35.6376 66.503 35.464 64.7793 36.332 63.4772L39.2214 59.137C38.9858 58.5541 38.775 57.9465 38.6014 57.3141C38.4277 56.6816 38.3161 56.0492 38.2293 55.4291L33.5543 53.1226C32.153 52.4282 31.4461 50.8409 31.843 49.3404L32.711 46.0914C33.1202 44.5909 34.5215 43.5741 36.084 43.6733L41.2799 44.0081C42.0612 43.0036 42.9664 42.0736 43.9957 41.2799L43.6609 36.0964C43.5617 34.5339 44.5785 33.1202 46.079 32.7234L49.328 31.8554H49.3404ZM53.3706 47.9143C50.3572 47.9143 47.9143 50.3573 47.9267 53.383C47.9267 56.3964 50.3696 58.8269 53.383 58.8269C56.3964 58.8269 58.8393 56.384 58.8393 53.3706C58.8269 50.3448 56.384 47.9143 53.3706 47.9143ZM25.655 0.109514L28.904 0.977564C30.4045 1.38679 31.4213 2.80047 31.3221 4.35056L30.9873 9.53406C32.0166 10.3277 32.9218 11.2454 33.7031 12.2622L38.9114 11.9274C40.4615 11.8282 41.8752 12.8451 42.2844 14.3455L43.1524 17.5945C43.5492 19.095 42.8424 20.6823 41.4411 21.3768L36.7661 23.6833C36.6792 24.3157 36.5552 24.9482 36.394 25.5682C36.2328 26.1882 36.0096 26.8083 35.774 27.3911L38.6634 31.7314C39.5314 33.0334 39.3578 34.7571 38.2541 35.8608L35.8732 38.2417C34.7695 39.3454 33.0458 39.519 31.7438 38.651L27.4035 35.7616C26.2254 36.2452 24.973 36.5924 23.6957 36.7661L21.3892 41.4287C20.6947 42.83 19.1074 43.5369 17.6069 43.14L14.3579 42.272C12.8451 41.8628 11.8406 40.4491 11.9398 38.899L12.2746 33.7031C11.2454 32.9094 10.3401 31.9918 9.55887 30.9749L4.35056 31.3097C2.80047 31.4089 1.38679 30.3921 0.977564 28.8916L0.109514 25.6426C-0.28731 24.1421 0.419532 22.5548 1.82081 21.8604L6.49589 19.5538C6.58269 18.9214 6.7067 18.3014 6.86791 17.6689C7.04152 17.0365 7.23993 16.4289 7.48794 15.846L4.59858 11.5182C3.73052 10.2161 3.90414 8.4924 5.0078 7.38874L7.38874 5.0078C8.4924 3.90414 10.2161 3.73053 11.5182 4.59858L15.8584 7.48794C17.0365 7.00432 18.289 6.6571 19.5663 6.48349L21.8728 1.82081C22.5672 0.419532 24.1421 -0.28731 25.655 0.109514ZM21.6248 16.1685C18.6114 16.1685 16.1685 18.6114 16.1685 21.6248C16.1685 24.6381 18.6114 27.0811 21.6248 27.0811C24.6381 27.0811 27.0811 24.6381 27.0811 21.6248C27.0811 18.6114 24.6381 16.1685 21.6248 16.1685Z" fill="#B0B0B0"/>
</svg>
