<svg width="75" height="54" viewBox="0 0 75 54" fill="none" xmlns="http://www.w3.org/2000/svg">
<path d="M37.5 0C44.2266 0 49.6875 5.42328 49.6875 12.1034C49.6875 18.7836 44.2266 24.2069 37.5 24.2069C30.7734 24.2069 25.3125 18.7836 25.3125 12.1034C25.3125 5.42328 30.7734 0 37.5 0ZM11.25 8.37931C15.9141 8.37931 19.6875 12.1267 19.6875 16.7586C19.6875 21.3905 15.9141 25.1379 11.25 25.1379C6.58594 25.1379 2.8125 21.3905 2.8125 16.7586C2.8125 12.1267 6.58594 8.37931 11.25 8.37931ZM0 46.5517C0 38.3237 6.71484 31.6552 15 31.6552C16.5 31.6552 17.9531 31.8763 19.3242 32.2836C15.4687 36.5664 13.125 42.2224 13.125 48.4138V50.2759C13.125 51.6026 13.4062 52.8595 13.9102 54H3.75C1.67578 54 0 52.3358 0 50.2759V46.5517ZM61.0898 54C61.5937 52.8595 61.875 51.6026 61.875 50.2759V48.4138C61.875 42.2224 59.5313 36.5664 55.6758 32.2836C57.0469 31.8763 58.5 31.6552 60 31.6552C68.2852 31.6552 75 38.3237 75 46.5517V50.2759C75 52.3358 73.3242 54 71.25 54H61.0898ZM55.3125 16.7586C55.3125 12.1267 59.0859 8.37931 63.75 8.37931C68.4141 8.37931 72.1875 12.1267 72.1875 16.7586C72.1875 21.3905 68.4141 25.1379 63.75 25.1379C59.0859 25.1379 55.3125 21.3905 55.3125 16.7586ZM18.75 48.4138C18.75 38.1259 27.1406 29.7931 37.5 29.7931C47.8594 29.7931 56.25 38.1259 56.25 48.4138V50.2759C56.25 52.3358 54.5742 54 52.5 54H22.5C20.4258 54 18.75 52.3358 18.75 50.2759V48.4138Z" fill="#B0B0B0"/>
</svg>
