<svg width="75" height="75" viewBox="0 0 75 75" fill="none" xmlns="http://www.w3.org/2000/svg">
<path d="M8.82353 0C3.9568 0 0 3.9568 0 8.82353V61.7647C0 66.6314 3.9568 70.5882 8.82353 70.5882H33.6397C30.5101 66.2454 28.6765 60.9099 28.6765 55.1471C28.6765 41.2776 39.3474 29.8897 52.9412 28.773V23.5202C52.9412 21.1765 52.0175 18.9292 50.3631 17.2748L35.6664 2.57812C34.012 0.923713 31.7785 0 29.4347 0H8.82353ZM44.8759 24.2647H31.9853C30.1517 24.2647 28.6765 22.7895 28.6765 20.9559V8.06526L44.8759 24.2647ZM55.1471 75C66.1075 75 75 66.1075 75 55.1471C75 44.1866 66.1075 35.2941 55.1471 35.2941C44.1866 35.2941 35.2941 44.1866 35.2941 55.1471C35.2941 66.1075 44.1866 75 55.1471 75ZM55.1471 61.2132C56.6636 61.2132 57.9044 62.454 57.9044 63.9706C57.9044 65.4871 56.6636 66.7279 55.1471 66.7279C53.6305 66.7279 52.3897 65.4871 52.3897 63.9706C52.3897 62.454 53.6305 61.2132 55.1471 61.2132ZM55.1471 47.4265C53.5478 47.4265 52.2105 48.557 51.9072 50.0735C51.659 51.273 50.5009 52.045 49.3015 51.7969C48.102 51.5487 47.33 50.3906 47.5781 49.1912C48.295 45.6618 51.4108 43.0147 55.1471 43.0147C59.4072 43.0147 62.8676 46.4752 62.8676 50.7353C62.8676 53.4651 61.2546 55.9467 58.7592 57.0634L57.3254 57.6976C57.1599 58.7592 56.25 59.5588 55.1471 59.5588C53.9338 59.5588 52.9412 58.5662 52.9412 57.3529C52.9412 55.8088 53.8511 54.4164 55.2574 53.7822L56.9669 53.0239C57.8768 52.6241 58.4559 51.7279 58.4559 50.7353C58.4559 48.9017 56.9807 47.4265 55.1471 47.4265Z" fill="#B0B0B0"/>
</svg>
