<svg width="75" height="87" viewBox="0 0 75 87" fill="none" xmlns="http://www.w3.org/2000/svg">
<path d="M64.2857 87H16.0714C7.19866 87 0 79.6934 0 70.6875V16.3125C0 7.30664 7.19866 0 16.0714 0H66.9643C71.4007 0 75 3.65332 75 8.15625V57.0938C75 60.6451 72.7567 63.6697 69.6429 64.7912V76.125C72.606 76.125 75 78.5549 75 81.5625C75 84.5701 72.606 87 69.6429 87H64.2857ZM16.0714 65.25C13.1083 65.25 10.7143 67.6799 10.7143 70.6875C10.7143 73.6951 13.1083 76.125 16.0714 76.125H58.9286V65.25H16.0714ZM21.4286 25.8281C21.4286 28.0881 23.2199 29.9062 25.4464 29.9062H54.9107C57.1373 29.9062 58.9286 28.0881 58.9286 25.8281C58.9286 23.5682 57.1373 21.75 54.9107 21.75H25.4464C23.2199 21.75 21.4286 23.5682 21.4286 25.8281ZM25.4464 38.0625C23.2199 38.0625 21.4286 39.8807 21.4286 42.1406C21.4286 44.4006 23.2199 46.2188 25.4464 46.2188H54.9107C57.1373 46.2188 58.9286 44.4006 58.9286 42.1406C58.9286 39.8807 57.1373 38.0625 54.9107 38.0625H25.4464Z" fill="#B0B0B0"/>
</svg>
