<svg width="74" height="96" viewBox="0 0 74 96" fill="none" xmlns="http://www.w3.org/2000/svg">
<path d="M0 35.625C0 30.8678 3.91364 27 8.72727 27H39.2727C44.0864 27 48 30.8678 48 35.625V87.375C48 92.1322 44.0864 96 39.2727 96H8.72727C3.91364 96 0 92.1322 0 87.375V35.625ZM15.2727 86.2969C15.2727 88.0893 16.7318 89.5312 18.5455 89.5312H29.4545C31.2682 89.5312 32.7273 88.0893 32.7273 86.2969C32.7273 84.5045 31.2682 83.0625 29.4545 83.0625H18.5455C16.7318 83.0625 15.2727 84.5045 15.2727 86.2969ZM39.2727 35.625H8.72727V76.5938H39.2727V35.625Z" fill="#3D67C2"/>
<path d="M57.5 33C66.6137 33 74 25.6137 74 16.5C74 7.38633 66.6137 0 57.5 0C48.3863 0 41 7.38633 41 16.5C41 25.6137 48.3863 33 57.5 33ZM51.7637 10.7637C52.3695 10.1578 53.3492 10.1578 53.9486 10.7637L57.4936 14.3086L61.0385 10.7637C61.6443 10.1578 62.624 10.1578 63.2234 10.7637C63.8229 11.3695 63.8293 12.3492 63.2234 12.9486L59.6785 16.4936L63.2234 20.0385C63.8293 20.6443 63.8293 21.624 63.2234 22.2234C62.6176 22.8229 61.6379 22.8293 61.0385 22.2234L57.4936 18.6785L53.9486 22.2234C53.3428 22.8293 52.3631 22.8293 51.7637 22.2234C51.1643 21.6176 51.1578 20.6379 51.7637 20.0385L55.3086 16.4936L51.7637 12.9486C51.1578 12.3428 51.1578 11.3631 51.7637 10.7637Z" fill="#FF0000"/>
</svg>
